<svg width="20" height="19" viewBox="0 0 20 19" fill="none" xmlns="http://www.w3.org/2000/svg">
<path fill-rule="evenodd" clip-rule="evenodd" d="M10.1856 18.6559C8.22845 18.6559 7.31894 18.3867 5.73801 17.3099C4.73802 18.5213 1.5714 19.468 1.43331 17.8483C1.43331 16.6324 1.1476 15.6049 0.823797 14.4832C0.438089 13.1013 0 11.5623 0 9.33243C0 4.00666 4.63802 0 10.1332 0C15.6331 0 19.9426 4.20408 19.9426 9.38179C19.9514 11.83 18.929 14.1815 17.0998 15.9203C15.2705 17.659 12.7839 18.6428 10.1856 18.6559ZM10.2665 4.6034C7.59036 4.47329 5.50468 6.21863 5.04278 8.95555C4.66183 11.2214 5.33801 13.9807 5.9142 14.1243C6.19038 14.1871 6.88561 13.6577 7.31894 13.2494C8.03546 13.7158 8.86985 13.9959 9.73795 14.0615C11.0709 14.1219 12.3758 13.6871 13.3722 12.8507C14.3686 12.0142 14.9769 10.8428 15.0664 9.58818C15.1185 8.331 14.6448 7.10479 13.7471 6.17338C12.8494 5.24198 11.5996 4.67983 10.2665 4.60789V4.6034Z" fill="#2E2E2E"/>
</svg>
